<?xml version="1.0" standalone="no"?>
<!DOCTYPE svg PUBLIC "-//W3C//DTD SVG 20010904//EN"
 "http://www.w3.org/TR/2001/REC-SVG-20010904/DTD/svg10.dtd">
<svg version="1.0" xmlns="http://www.w3.org/2000/svg"
 width="512.000000pt" height="512.000000pt" viewBox="0 0 512.000000 512.000000"
 preserveAspectRatio="xMidYMid meet">
<metadata>
Created by potrace 1.14, written by Peter Selinger 2001-2017
</metadata>
<g transform="translate(0.000000,512.000000) scale(0.100000,-0.100000)"
fill="#000000" stroke="none">
<path d="M2273 4380 c-54 -22 -54 -78 -1 -250 20 -63 43 -158 52 -210 26 -150
62 -191 169 -198 51 -3 72 0 105 17 102 52 142 212 83 333 -41 85 -174 212
-295 283 -51 29 -85 37 -113 25z"/>
<path d="M3393 4368 c-6 -7 -22 -43 -36 -79 -65 -172 -145 -319 -315 -578 -67
-101 -78 -144 -44 -174 39 -35 74 -22 204 75 128 96 275 236 367 351 l54 67
67 0 c86 0 125 14 140 50 9 23 9 34 -5 59 -24 47 -117 116 -240 177 -119 59
-174 74 -192 52z"/>
<path d="M1377 4272 c-29 -32 -21 -85 28 -182 25 -49 65 -149 90 -222 25 -73
53 -143 61 -156 25 -39 74 -62 130 -62 117 0 194 87 194 218 0 59 -4 73 -39
132 -44 73 -96 125 -186 187 -142 96 -241 126 -278 85z"/>
<path d="M1105 3698 l-27 -24 13 -145 c21 -245 -3 -313 -177 -487 -128 -129
-151 -170 -139 -248 9 -60 55 -112 110 -124 220 -49 425 196 442 528 l6 112
1243 0 1244 0 -21 -52 c-11 -29 -57 -123 -101 -208 -78 -150 -81 -157 -67
-185 19 -40 65 -53 111 -31 49 23 207 153 308 252 80 78 90 85 169 109 131 42
157 85 109 183 -46 92 -252 272 -312 272 -30 0 -72 -28 -145 -98 l-65 -62
-1260 2 -1260 3 -33 90 c-36 96 -53 120 -94 130 -19 5 -33 0 -54 -17z"/>
<path d="M3188 3041 c-25 -16 -60 -47 -78 -70 l-33 -41 -712 0 c-735 0 -764
-2 -785 -40 -13 -24 -13 -76 0 -100 21 -38 51 -40 757 -40 682 0 684 0 673
-20 -35 -65 -183 -243 -298 -359 l-133 -134 -31 39 c-42 52 -162 167 -211 201
-53 37 -102 36 -133 -1 -40 -46 -32 -70 79 -213 61 -80 167 -270 167 -300 0
-10 -178 -13 -819 -15 -789 -3 -820 -4 -840 -22 -15 -14 -21 -31 -21 -62 0
-82 -60 -76 890 -82 662 -4 840 -8 844 -17 15 -39 28 -236 24 -354 -6 -163
-27 -229 -87 -284 -62 -56 -90 -61 -310 -53 -173 6 -196 5 -212 -10 -21 -19
-25 -55 -9 -85 6 -10 39 -32 73 -47 60 -28 75 -42 179 -165 26 -32 26 -32 114
-30 208 6 347 82 443 242 23 37 50 102 62 146 36 135 37 489 3 631 l-6 21 704
6 c745 5 768 7 819 53 45 41 8 125 -99 225 -112 104 -147 132 -205 160 -49 23
-64 26 -88 17 -35 -12 -151 -134 -210 -222 l-44 -65 -462 -1 -461 0 -31 66
c-17 37 -30 68 -29 69 2 0 48 33 103 72 145 102 272 207 423 350 l133 125 80
14 c193 34 214 94 89 253 -63 80 -196 171 -249 171 -10 0 -38 -13 -63 -29z"/>
</g>
</svg>
